<svg xmlns="http://www.w3.org/2000/svg" width="24" height="24">
    <path fill-rule="nonzero" d="M23.8366 16.6822l-2.3987-3.2126 2.3987-3.2126c.2998-.292.1499-.8762-.15-1.1682-.4497-.292-1.0494-.292-1.3492.146l-2.0988 2.7745-2.0988-2.7745c-.2999-.438-.8995-.438-1.3493-.146-.2998.292-.2998.8761-.1499 1.3142l2.3987 3.2126-2.3987 3.0666c-.2998.438-.1499 1.0222.15 1.3143.4497.292 1.0493.292 1.3492-.146l2.0988-2.7746 2.0988 2.7745c.2998.4381.8995.4381 1.3493.146.2998-.292.4497-.8761.1499-1.3142zM12.8927 8.9427c-1.799 0-3.2981 1.0222-4.0477 2.4825-.7496-1.4603-2.3986-2.4825-4.0477-2.4825-1.0494 0-1.949.2921-2.8484.8762V5.8762C1.7989 5.438 1.4992 5 .8995 5 .4497 5 0 5.438 0 5.8762v7.7394c0 2.4825 2.0988 4.5269 4.6474 4.5269 1.799 0 3.2981-1.0222 4.0477-2.4825.7496 1.4603 2.3986 2.4825 4.0477 2.4825 2.5486 0 4.6474-2.0444 4.6474-4.6729 0-2.6285-1.9489-4.5269-4.4975-4.5269zm-8.2453 7.3014c-1.4992 0-2.8484-1.3142-2.8484-2.7745 0-1.4603 1.1993-2.7745 2.8484-2.7745 1.649 0 2.8484 1.3142 2.8484 2.7745 0 1.4603-1.3493 2.7745-2.8484 2.7745zm8.2453 0c-1.4991 0-2.8484-1.3142-2.8484-2.7745 0-1.4603 1.1994-2.7745 2.8484-2.7745 1.6491 0 2.8484 1.3142 2.8484 2.7745 0 1.4603-1.3492 2.7745-2.8484 2.7745z"/>
</svg>