<?xml version="1.0" encoding="UTF-8"?>
<svg width="32px" height="32px" viewBox="0 0 32 32" version="1.1" xmlns="http://www.w3.org/2000/svg" xmlns:xlink="http://www.w3.org/1999/xlink">
    <!-- Generator: Sketch 62 (91390) - https://sketch.com -->
    <title>Icons/32/Folder-deselect</title>
    <desc>Created with Sketch.</desc>
    <g id="Icons/32/Folder-deselect" stroke="none" stroke-width="1" fill="none" fill-rule="evenodd">
        <g id="Group" transform="translate(2.000000, 4.000000)" fill-rule="nonzero">
            <path d="M13.5351838,3 L26,3 C27.1045695,3 28,3.8954305 28,5 L28,22 C28,23.1045695 27.1045695,24 26,24 L2,24 C0.8954305,24 -5.32907052e-15,23.1045695 -5.32907052e-15,22 L-5.32907052e-15,2 C-5.32907052e-15,0.8954305 0.8954305,0 2,0 L10,0 C10.3343532,0 10.6465845,0.167101135 10.8320503,0.445299804 L13.5351838,3 Z" id="Border" fill="#414141"></path>
            <path d="M9.46481624,2 L2,2 L2,22 L26,22 L26,5 L13,5 C12.6656468,5 12.3534155,4.83289886 12.1679497,4.5547002 L9.46481624,2 Z" id="Fill" fill="#FFE3BF"></path>
            <g id="Icons/16/Down-SN" transform="translate(8.000000, 9.000000)" fill="#414141">
                <path d="M0,6.00029998 C0,6.25508087 0.0975015235,6.51126166 0.293254582,6.70654701 C0.684010688,7.09781766 1.31627057,7.09781766 1.70777668,6.70654701 L6.00009375,2.41446891 L10.2931608,6.70654701 C10.6839169,7.09781766 11.3161768,7.09781766 11.7069329,6.70654701 C12.097689,6.3159763 12.097689,5.68322376 11.7069329,5.29265305 L6.7073548,0.29292803 C6.3165987,-0.0976426768 5.68358881,-0.0976426768 5.2928327,0.29292803 L0.29250457,5.293353 C0.0975015235,5.4879384 0,5.74411919 0,6.00029998 Z"></path>
            </g>
        </g>
    </g>
</svg>