<svg xmlns="http://www.w3.org/2000/svg" width="16" height="16">
    <path fill-rule="nonzero" d="M12.5858 7l-1.293-1.2929c-.3904-.3905-.3904-1.0237 0-1.4142.3906-.3905 1.0238-.3905 1.4143 0l3 3c.3905.3905.3905 1.0237 0 1.4142l-3 3c-.3905.3905-1.0237.3905-1.4142 0-.3905-.3905-.3905-1.0237 0-1.4142L12.5858 9H6c-.5523 0-1-.4477-1-1s.4477-1 1-1h6.5858zM2 2v12h6c.5523 0 1 .4477 1 1s-.4477 1-1 1H1.7778C.7959 16 0 15.204 0 14.2222V1.7778C0 .7959.796 0 1.7778 0H8c.5523 0 1 .4477 1 1s-.4477 1-1 1H2z"/>
</svg>