<svg xmlns="http://www.w3.org/2000/svg" width="24" height="24">
    <path fill-rule="nonzero" d="M.87834527 16.8739202c-1.0847846-1.7763833-1.17447036-3.99970914-.21506625-5.86643545.54928948-1.06876041 1.39379913-1.9259439 2.4050106-2.4920079.72983598-.32342895 1.52871268-.50318518 2.35485457-.51341298l.04789435-.00128001.02897791-.00080052c1.1133681-.00148601 2.2048293.30811308 3.15178563.8936453l.00602804.00366878 4.61156058 2.76227238-1.5784653.66424178-4.76411808 2.00481122-2.13965494.9004049-3.90880711 1.6448925zm5.28724027-9.84292106C7.60685818 5.18608647 9.85241642 4 12.375 4c3.499337 0 6.4655848 2.28242631 7.4912523 5.43978783-.0500794-.00152179-.0988449-.00229426-.1472444-.00229426-.7883379-.00072339-1.5684391.1603066-2.2920441.47313653l-3.0144914 1.26796228-5.23781386-3.13739097c-.91475006-.56496769-1.94492494-.90945524-3.009073-1.01020227zm16.21811856 4.21937701c.399349.35884923.7419271.78593858 1.0088086 1.26921954.7150145 1.29478001.7992747 2.83459311.2505272 4.18800271l-3.6298064-2.174221-1.3488229-.80793363-3.0915066-1.85177743-.0964334-.05776187 2.3427691-.98544004c.6026434-.26050898 1.2474405-.39359547 1.8990439-.39297281.0984844 0 .2019978.00409952.3236637.01222733.8505786.05757376 1.6553552.33984802 2.3417568.8006572zm.792396 6.34320105c-.8989308 1.3792748-2.4148513 2.4069126-4.0511001 2.4064241H6c-1.74261031.0009133-3.38752541-.9530789-4.5188718-2.294806l3.69389701-1.5544547 2.13965406-.9004045 4.76411693-2.00481078 2.254468-.94871377.7257844.43473155 3.0915034 1.8517756 1.3488222.8079332 3.6767259 2.2023253z"/>
</svg>