<svg xmlns="http://www.w3.org/2000/svg" width="24" height="24">
    <path fill-rule="nonzero" d="M1 4.19302465L13.1023296 2c.004156 7 0 14 0 21C9.0709904 22.2760072 5.03965122 21.5393867 1 20.8153939V4.19302465zm4.03133918 4.73962718c-.49456635.59350572-.64833908 1.41431147-.55690665 2.16776907.07480836.6566446.43638208 1.2585689.92679241 1.6752857.44885014.3872519 1.02238086.6229705 1.42551478 1.0775706.30338945.3409501.3781978.9092003.07480836 1.2754059-.24104915.2946482-.65665113.3156945-.99744475.2567649-.57353073-.0841852-1.05978504-.4419724-1.43798284-.8755262l.00415602 1.8141912c.55690665.4293446 1.27589807.580878 1.96164133.5767537.48625432-.0127128.98082067-.1263628 1.37564255-.4252203.49456635-.3662056.78133172-.9639206.85198405-1.5700541.09974448-.7071557-.01662408-1.4690319-.44885013-2.0499098-.3781978-.4840649-.88523222-.8376428-1.40057867-1.1491281-.27845332-.1725797-.55690665-.3577871-.74392754-.6355983-.22026904-.3788334-.21195701-.9176188.11221254-1.22910403.27014128-.2651834.68158724-.2862297 1.03484892-.2441371.43222606.04630187.83951599.2441371 1.1761536.51352973V8.3096813c-.56106267-.23150932-1.18446564-.25676488-1.77877647-.21046302-.60262286.07997595-1.19277767.35778713-1.57928751.83343355zm9.24298802-3.41371016c.4156019-.41250751.9932887-.66506314 1.5792875-.61034275.8353599.04630186 1.5709754.70715574 1.7787764 1.51954299.0831204.30727601.0872764.6271798.0374042.93866507 1.3465504.56404089 2.4437396 1.71316897 2.9632421 3.09380632.5901548-.11365 1.2301819.0589297 1.674876.4714372.7023673.6103428.8935442 1.7173782.4654742 2.5508118-.3823538.7829224-1.2966782 1.2501503-2.1445062 1.0733614-.5195025 1.3764281-1.6042236 2.5255562-2.9507741 3.0853878.1163686.677691-.0872764 1.405893-.5735307 1.8941672-.5028784.5261576-1.3133022.7197835-1.9990455.484065-.3117015-.1094408-.6026229-.2862297-.8228919-.5387854v-2.8917618c.3906659-.4125076.9475725-.6650632 1.5127912-.6355984.5361265.0126278 1.0348489.2862297 1.3964226.6692724 1.1345934-.4546001 2.0447618-1.4185207 2.4603637-2.5802766-.3366376-.3535778-.5776867-.808178-.6275589-1.3006614-.0831204-.6524354.1787088-1.3132893.6275589-1.7720986-.4156019-1.16596517-1.3299263-2.13830431-2.4728317-2.59290444-.3241696.37883344-.7937998.6271798-1.2842101.67769092-.5984669.06734817-1.2010897-.19362597-1.6208477-.62297053V5.51894167z"/>
</svg>