<svg xmlns="http://www.w3.org/2000/svg" width="24" height="24">
    <path fill-rule="nonzero" d="M10.3015 7.5569c-.1192-2.069 3.0722-3.5724 5.4975-3.5414 1.292.0155 2.2752.45 2.127 1.2742-.0976.5482-.6958 1.1672-1.5054 1.4034-.2421.0724-.3289.1724-.3289.3655 0 .2983.9271.862 1.6807.862C19.4928 7.9207 21 6.8173 21 5.2277 20.9982 3.343 18.5296 2 15.808 2 11.59 2 7.1336 4.8 7.1336 7.862c0 4.7121 8.0455 4.3846 8.0455 7.8087 0 2.3465-2.6602 4.1638-5.501 4.1638-2.2391 0-3.8204-.7966-3.8204-2.1655 0-.9328 1.2036-1.7242 2.1108-1.7242.5096 0 .8783.2742.8783.7104 0 .5534-.6145.4914-.6145.9914 0 .4137.6741.8534 1.6265.8534 1.6264 0 2.53-1.012 2.53-2.181 0-1.2931-1.4584-2.6914-3.9938-2.6828-2.5355.0086-5.0691 1.7672-5.3637 3.8224C2.6518 20.1224 5.7782 22 9.5063 22c4.1566 0 9.1137-2.4138 9.1968-5.9897.1102-5-8.1973-4.9293-8.4016-8.4534z"/>
</svg>