<svg xmlns="http://www.w3.org/2000/svg" width="24" height="24">
    <path fill-rule="nonzero" d="M18 8c0-.5523.4477-1 1-1s1 .4477 1 1v12c0 1.1046-.8954 2-2 2H6c-1.1046 0-2-.8954-2-2V4c0-1.1046.8954-2 2-2h8c.5523 0 1 .4477 1 1s-.4477 1-1 1H6v16h12V8zm-5 5.4142V18c0 .5523-.4477 1-1 1s-1-.4477-1-1v-4.5858l-1.2929 1.293c-.3905.3904-1.0237.3904-1.4142 0-.3905-.3906-.3905-1.0238 0-1.4143l3-3c.3905-.3905 1.0237-.3905 1.4142 0l3 3c.3905.3905.3905 1.0237 0 1.4142-.3905.3905-1.0237.3905-1.4142 0L13 13.4142zM14.7071 2.293l5 5C20.3371 7.9229 19.891 9 19 9h-5c-.5523 0-1-.4477-1-1V3c0-.8909 1.0771-1.337 1.7071-.7071zM15 7h1.5858L15 5.4142V7z"/>
</svg>