<?xml version="1.0" encoding="utf-8"?><svg viewBox="0 0 32 32" xmlns="http://www.w3.org/2000/svg" xmlns:xlink="http://www.w3.org/1999/xlink"><style>:root>svg{display:none}:root>svg:target{display:block}</style><svg viewBox="0 0 8 8" id="arrow-alt-down" xmlns="http://www.w3.org/2000/svg"><path fill-rule="evenodd" d="M3 4V1a1 1 0 112 0v3h3L4 8 0 4h3z"/></svg><svg viewBox="0 0 24 24" id="box" xmlns="http://www.w3.org/2000/svg"><path d="M23.837 16.682l-2.4-3.212 2.4-3.213c.3-.292.15-.876-.15-1.168-.45-.292-1.05-.292-1.35.146l-2.098 2.774-2.1-2.774c-.3-.438-.899-.438-1.349-.146-.3.292-.3.876-.15 1.314l2.4 3.213-2.4 3.066c-.3.438-.15 1.022.15 1.315.45.292 1.05.292 1.35-.146l2.099-2.775 2.098 2.774c.3.438.9.438 1.35.146.3-.292.45-.876.15-1.314zm-10.944-7.74c-1.8 0-3.298 1.023-4.048 2.483-.75-1.46-2.399-2.482-4.048-2.482-1.05 0-1.949.292-2.848.876V5.876C1.799 5.438 1.499 5 .899 5 .45 5 0 5.438 0 5.876v7.74c0 2.482 2.099 4.527 4.647 4.527 1.8 0 3.298-1.023 4.048-2.483.75 1.46 2.399 2.483 4.048 2.483a4.641 4.641 0 004.647-4.673c0-2.629-1.949-4.527-4.497-4.527zm-8.246 7.302c-1.499 0-2.848-1.314-2.848-2.774s1.2-2.775 2.848-2.775c1.65 0 2.849 1.314 2.849 2.775 0 1.46-1.35 2.774-2.849 2.774zm8.246 0c-1.5 0-2.849-1.314-2.849-2.774s1.2-2.775 2.849-2.775c1.649 0 2.848 1.314 2.848 2.775 0 1.46-1.35 2.774-2.848 2.774z"/></svg><svg viewBox="0 0 24 24" id="chevron-back-single" xmlns="http://www.w3.org/2000/svg"><path d="M9.414 12l6.293 6.293a1 1 0 11-1.414 1.414l-7-7a1 1 0 010-1.414l7-7a1 1 0 011.414 1.414L9.414 12z"/></svg><svg viewBox="0 0 16 16" id="chevron-forward-single" xmlns="http://www.w3.org/2000/svg"><path d="M6 14a.995.995 0 01-.707-.293.999.999 0 010-1.415L9.585 8 5.293 3.707a.998.998 0 010-1.414 1 1 0 011.414 0l5 5a1 1 0 010 1.414l-5 5A.996.996 0 016 14z"/></svg><svg viewBox="0 0 16 16" id="cross-lg" xmlns="http://www.w3.org/2000/svg"><path d="M9.414 8l5.293 5.293a1 1 0 01-1.414 1.414L8 9.414l-5.293 5.293a1 1 0 01-1.414-1.414L6.586 8 1.293 2.707a1 1 0 011.414-1.414L8 6.586l5.293-5.293a1 1 0 011.414 1.414L9.414 8z"/></svg><svg viewBox="0 0 24 24" id="document-solid" xmlns="http://www.w3.org/2000/svg"><path d="M18 8a1 1 0 112 0v12a2 2 0 01-2 2H6a2 2 0 01-2-2V4a2 2 0 012-2h8a1 1 0 110 2H6v16h12V8zm-3.293-5.707l5 5C20.337 7.923 19.891 9 19 9h-5a1 1 0 01-1-1V3c0-.89 1.077-1.337 1.707-.707zM15 7h1.586L15 5.414V7zm-7 6a.5.5 0 110-1h8a.5.5 0 110 1H8zm0 2a.5.5 0 110-1h8a.5.5 0 110 1H8zm0 2a.5.5 0 110-1h4a.5.5 0 110 1H8z"/></svg><svg viewBox="0 0 24 24" id="dropbox" xmlns="http://www.w3.org/2000/svg"><path d="M12.013 6.386L7.007 9.77l5.006 3.386-5.006 3.385L2 13.128l5.007-3.385L2 6.386 7.007 3l5.006 3.386zM6.98 17.614l5.007-3.385 5.006 3.385L11.987 21 6.98 17.614zm5.033-4.486l5.007-3.385-5.007-3.357L16.993 3 22 6.386 16.993 9.77 22 13.157l-5.007 3.385-4.98-3.414z"/></svg><svg viewBox="0 0 16 16" id="folder" xmlns="http://www.w3.org/2000/svg"><path d="M6 5V3H2v10h12V5H6zm2-2h6a2 2 0 012 2v8a2 2 0 01-2 2H2a2 2 0 01-2-2V3a2 2 0 012-2h4a2 2 0 012 2zM2 4h4v1H2V4z"/></svg><svg viewBox="0 0 32 32" id="folder-deselect" xmlns="http://www.w3.org/2000/svg"><g fill="none"><path d="M15.535 7H28a2 2 0 012 2v17a2 2 0 01-2 2H4a2 2 0 01-2-2V6a2 2 0 012-2h8a1 1 0 01.832.445L15.535 7z" fill="#414141"/><path d="M11.465 6H4v20h24V9H15a1 1 0 01-.832-.445L11.465 6z" fill="#FFE3BF"/><path d="M10 19a.999.999 0 001.708.706L16 15.415l4.293 4.293a1 1 0 101.414-1.414l-5-5a1 1 0 00-1.414 0l-5 5A.996.996 0 0010 19z" fill="#414141"/></g></svg><svg viewBox="0 0 32 32" id="folder-select" xmlns="http://www.w3.org/2000/svg"><g fill="none"><path d="M15.535 7H28a2 2 0 012 2v17a2 2 0 01-2 2H4a2 2 0 01-2-2V6a2 2 0 012-2h8a1 1 0 01.832.445L15.535 7z" fill="#414141"/><path d="M11.465 6H4v20h24V9H15a1 1 0 01-.832-.445L11.465 6z" fill="#FFE3BF"/><path d="M10 15a.999.999 0 011.708-.706L16 18.585l4.293-4.293a1 1 0 111.414 1.414l-5 5a1 1 0 01-1.414 0l-5-5A.996.996 0 0110 15z" fill="#414141"/></g></svg><svg viewBox="0 0 24 24" id="google-drive" xmlns="http://www.w3.org/2000/svg"><path d="M5.538 20H5.5L2 14 7.963 3.909l3.444 5.965L9.582 13H9.58l-.322.557L9 14h.003l-3.464 6zm1.155 0l3.464-6H22l-3.5 6H6.693zm1.9-17H15.5l5.909 10h-7l-1.894-3.205L8.594 3z"/></svg><svg viewBox="0 0 16 16" id="home" xmlns="http://www.w3.org/2000/svg"><path d="M12 6.414l-4-4-4 4V14h1v-3a1 1 0 011-1h4a1 1 0 011 1v3h1V6.414zm2 2V15a1 1 0 01-1 1h-3a1 1 0 01-1-1v-3H7v3a1 1 0 01-1 1H3a1 1 0 01-1-1V8.414l-.293.293A1 1 0 01.293 7.293l7-7a1 1 0 011.414 0l7 7a1 1 0 01-1.414 1.414L14 8.414z"/></svg><svg viewBox="0 0 16 16" id="logout" xmlns="http://www.w3.org/2000/svg"><path d="M12.586 7l-1.293-1.293a1 1 0 011.414-1.414l3 3a1 1 0 010 1.414l-3 3a1 1 0 01-1.414-1.414L12.586 9H6a1 1 0 110-2h6.586zM2 2v12h6a1 1 0 110 2H1.778A1.778 1.778 0 010 14.222V1.778C0 .796.796 0 1.778 0H8a1 1 0 110 2H2z"/></svg><svg viewBox="0 0 24 24" id="office-365" xmlns="http://www.w3.org/2000/svg"><path d="M3 18.5v-13L15 1l6 2v18l-6 2-11.5-4L15 20V4.5L7 6v11z"/></svg><svg viewBox="0 0 24 24" id="one-drive" xmlns="http://www.w3.org/2000/svg"><path d="M.878 16.874a5.998 5.998 0 012.19-8.359 5.99 5.99 0 012.355-.513l.048-.001L5.5 8a5.978 5.978 0 013.152.894l.006.003 4.611 2.763-1.578.664-4.764 2.005-2.14.9-3.909 1.645zM6.166 7.03a7.878 7.878 0 0113.7 2.409 5.763 5.763 0 00-2.44.47l-3.014 1.269L9.175 8.04a6.978 6.978 0 00-3.01-1.01zm16.218 4.22a4.871 4.871 0 011.259 5.457l-3.63-2.175-1.349-.808-3.091-1.851-.097-.058 2.343-.986a4.769 4.769 0 012.223-.38c.85.057 1.655.34 2.342.8zm.792 6.343C22.277 18.973 20.761 20 19.125 20H6c-1.743 0-3.388-.953-4.519-2.295l3.694-1.554 2.14-.9 4.764-2.005 2.254-.95.726.436 3.092 1.851 1.348.808 3.677 2.203z"/></svg><svg viewBox="0 0 24 24" id="pdffiller" xmlns="http://www.w3.org/2000/svg"><path d="M17 4l-3 6H4L0 4h17zm1 0l4 5-6 11h-6l8-16zM4.5 11H11l1.5 2-3 6-5-8z"/></svg><svg viewBox="0 0 24 24" id="pdffiller-colored" xmlns="http://www.w3.org/2000/svg"><path fill="#666" d="M17 4l-3 6H4L0 4z"/><path fill="#CF4436" d="M18 4l4 5-6 11h-6z"/><path fill="#E95E50" d="M4.5 11H11l1.5 2-3 6z"/></svg><svg viewBox="0 0 16 16" id="search" xmlns="http://www.w3.org/2000/svg"><path fill-rule="evenodd" d="M10.89 9.476l3.817 3.817a1 1 0 01-1.414 1.414l-3.816-3.816a6 6 0 111.414-1.414zM6 10a4 4 0 100-8 4 4 0 000 8z"/></svg><svg viewBox="0 0 24 24" id="sharepoint" xmlns="http://www.w3.org/2000/svg"><path d="M1 4.193L13.102 2c.004 7 0 14 0 21C9.071 22.276 5.04 21.54 1 20.815V4.193zm4.031 4.74c-.494.593-.648 1.414-.557 2.167.075.657.437 1.259.927 1.676.45.387 1.023.623 1.426 1.077.303.341.378.91.075 1.276-.242.294-.657.315-.998.256-.573-.084-1.06-.442-1.438-.875l.004 1.814c.557.43 1.276.581 1.962.577.486-.013.98-.126 1.376-.425.494-.367.78-.964.852-1.57.1-.708-.017-1.47-.45-2.05-.378-.484-.885-.838-1.4-1.15-.278-.172-.557-.357-.744-.635-.22-.379-.212-.918.112-1.23.27-.264.682-.285 1.035-.243.432.046.84.244 1.176.513V8.31c-.56-.232-1.184-.257-1.778-.21-.603.08-1.193.357-1.58.833zm9.243-3.414c.416-.413.994-.665 1.58-.61.835.046 1.57.707 1.778 1.52.084.306.088.626.038.938a5.48 5.48 0 012.963 3.094c.59-.114 1.23.059 1.675.471.702.61.893 1.717.465 2.55-.382.784-1.296 1.251-2.144 1.074-.52 1.377-1.604 2.526-2.95 3.086.115.677-.088 1.406-.574 1.894a1.947 1.947 0 01-2 .484 1.93 1.93 0 01-.822-.539V16.59c.39-.412.947-.665 1.512-.635.537.012 1.035.286 1.397.669 1.134-.455 2.045-1.419 2.46-2.58-.336-.354-.577-.808-.627-1.301-.083-.652.178-1.313.627-1.772-.415-1.166-1.33-2.138-2.473-2.593a1.979 1.979 0 01-1.284.678c-.598.067-1.2-.194-1.62-.623V5.519z"/></svg><svg viewBox="0 0 24 24" id="sign-now" xmlns="http://www.w3.org/2000/svg"><path d="M10.302 7.557c-.12-2.07 3.072-3.573 5.497-3.542 1.292.016 2.275.45 2.127 1.275-.098.548-.696 1.167-1.505 1.403-.243.072-.33.172-.33.366 0 .298.928.862 1.681.862C19.492 7.92 21 6.817 21 5.228 20.998 3.343 18.53 2 15.808 2 11.59 2 7.134 4.8 7.134 7.862c0 4.712 8.045 4.385 8.045 7.809 0 2.346-2.66 4.164-5.5 4.164-2.24 0-3.821-.797-3.821-2.166 0-.933 1.203-1.724 2.11-1.724.51 0 .879.274.879.71 0 .554-.615.492-.615.992 0 .413.674.853 1.627.853 1.626 0 2.53-1.012 2.53-2.181 0-1.293-1.459-2.691-3.994-2.683-2.535.009-5.07 1.767-5.364 3.823C2.651 20.122 5.778 22 9.506 22c4.157 0 9.114-2.414 9.197-5.99.11-5-8.197-4.929-8.402-8.453z"/></svg><svg viewBox="0 0 24 24" id="upload-document" xmlns="http://www.w3.org/2000/svg"><path d="M18 8a1 1 0 112 0v12a2 2 0 01-2 2H6a2 2 0 01-2-2V4a2 2 0 012-2h8a1 1 0 110 2H6v16h12V8zm-5 5.414V18a1 1 0 11-2 0v-4.586l-1.293 1.293a1 1 0 01-1.414-1.414l3-3a1 1 0 011.414 0l3 3a1 1 0 01-1.414 1.414L13 13.414zm1.707-11.121l5 5C20.337 7.923 19.891 9 19 9h-5a1 1 0 01-1-1V3c0-.89 1.077-1.337 1.707-.707zM15 7h1.586L15 5.414V7z"/></svg></svg>